<svg width="16" height="14" viewBox="0 0 16 14" fill="none" xmlns="http://www.w3.org/2000/svg">
    <circle cx="7.5126" cy="3.5" r="3" stroke="#002861" />
    <path fill-rule="evenodd" clip-rule="evenodd" d="M0.012603 13.5858L0.012604 14L0.515669 14L14.0198 14H15.0243C15.0102 13.9209 15.0156 13.7321 15.0211 13.5369C15.0222 13.4964 15.0233 13.4557 15.0243 13.4156C15.0272 13.297 15.0287 13.1842 15.0243 13.1008C15.0221 13.0586 15.0184 13.024 15.0126 13C14.1132 9.27063 11.5182 7 7.51261 7C3.50707 7 0.912006 9.27063 0.0126014 13C-0.0084203 13.0872 0.00117556 13.3147 0.0104532 13.5346C0.0111766 13.5518 0.0118981 13.5689 0.012603 13.5858ZM1.04428 13C1.46667 11.4188 2.219 10.2046 3.23155 9.37503C4.28922 8.50851 5.70568 8 7.51261 8C9.31955 8 10.736 8.50851 11.7937 9.37503C12.8062 10.2046 13.5585 11.4188 13.9809 13H1.04428Z" fill="#002861" />
</svg>